<?xml version="1.0" encoding="UTF-8" standalone="no"?>
<svg
   version="1.1"
   width="1068.376"
   height="1068.3759"
   id="svg6"
   sodipodi:docname="xmr.svg"
   inkscape:version="1.2.2 (b0a8486541, 2022-12-01)"
   xmlns:inkscape="http://www.inkscape.org/namespaces/inkscape"
   xmlns:sodipodi="http://sodipodi.sourceforge.net/DTD/sodipodi-0.dtd"
   xmlns="http://www.w3.org/2000/svg"
   xmlns:svg="http://www.w3.org/2000/svg">
  <defs
     id="defs10" />
  <sodipodi:namedview
     id="namedview8"
     pagecolor="#ffffff"
     bordercolor="#000000"
     borderopacity="0.25"
     inkscape:showpageshadow="false"
     inkscape:pageopacity="0.0"
     inkscape:pagecheckerboard="0"
     inkscape:deskcolor="#d1d1d1"
     showgrid="false"
     showborder="false"
     borderlayer="false"
     inkscape:zoom="1.1882812"
     inkscape:cx="533.54372"
     inkscape:cy="533.9645"
     inkscape:window-width="3840"
     inkscape:window-height="2124"
     inkscape:window-x="0"
     inkscape:window-y="0"
     inkscape:window-maximized="1"
     inkscape:current-layer="svg6" />
  <g
     id="g295"
     transform="translate(-105.81196,-105.81205)">
    <path
       d="M 0,0 C 0.9610968,9.3658e-4 1.9221936,0.00187317 2.9124145,0.00283813 87.207473,0.17966142 168.47832,20.513672 243.75,58.1875 c 1.02078,0.50644 2.04155,1.012881 3.09326,1.534668 23.1632,11.537272 45.00106,25.234052 65.90674,40.465332 0.88365,0.64292 0.88365,0.64292 1.78516,1.29883 3.44336,2.51822 6.83815,5.09444 10.21484,7.70117 0.53754,0.41282 1.07508,0.82564 1.62891,1.25098 12.60437,9.69732 24.63341,20.02103 36.37109,30.74902 0.48259,0.43748 0.96519,0.87495 1.4624,1.32568 10.72475,9.72427 21.47478,19.63563 30.84229,30.69776 2.13154,2.48516 4.35215,4.88096 6.57031,7.28906 4.92013,5.4025 9.56758,10.97736 14.125,16.6875 0.61996,0.77054 0.61996,0.77054 1.25244,1.55664 25.00355,31.10633 45.92485,64.75998 63.74756,100.44336 0.49484,0.98178 0.98968,1.96356 1.49951,2.9751 35.73698,71.19409 52.78908,151.84502 52.68799,231.2749 -9.4e-4,0.9611 -0.002,1.92219 -0.003,2.91241 -0.11944,56.94027 -9.17995,112.82346 -27.18466,166.83759 -53.13,0 -106.26,0 -161,0 -0.33,-147.18 -0.66,-294.36 -1,-446 -113.52,113.52 -227.04,227.04 -344,344 -4.0680269,-2.03401 -6.6916602,-4.41489 -9.8333321,-7.58724 -0.5820391,-0.57973 -1.1640783,-1.15946 -1.763755,-1.75676 -1.9606419,-1.95532 -3.9140349,-3.91773 -5.8675739,-5.88015 -1.413707,-1.41284 -2.827853,-2.82523 -4.242401,-4.23723 -3.894813,-3.89032 -7.783341,-7.78688 -11.670903,-11.68445 -4.189953,-4.19857 -8.385661,-8.39138 -12.580684,-12.58488 -7.270367,-7.26932 -14.53709,-14.54226 -21.801277,-21.81776 -7.619646,-7.63147 -15.241353,-15.26088 -22.865829,-22.88753 -0.473856,-0.47399 -0.947712,-0.94799 -1.435926,-1.43634 -2.406431,-2.40711 -4.812898,-4.81418 -7.219379,-7.22124 -17.05029,-17.05449 -34.09594,-34.11361 -51.13886,-51.17546 -16.5582,-16.57657 -33.11852,-33.15102 -49.68164,-49.72266 -1.04133,-1.04187 -2.08266,-2.08374 -3.12398,-3.12561 -8.06213,-8.06629 -16.12438,-16.13244 -24.18667,-24.19857 -39.53588,-39.55476 -79.06108,-79.12019 -118.58779,-118.68412 -0.33,147.18 -0.66,294.36 -1,446 -53.13,0 -106.26,0 -161,0 -9.39022,-29.34445 -9.39022,-29.34445 -12.6875,-43.75 -0.18638,-0.80283 -0.37276,-1.60567 -0.56479,-2.43283 -4.983,-21.51017 -8.59756,-43.05528 -10.99755,-65.00467 -0.12503,-1.14023 -0.12503,-1.14023 -0.25259,-2.3035 -1.97128,-18.24996 -2.70827,-36.40653 -2.68491,-54.759 9.4e-4,-0.9611 0.002,-1.92219 0.003,-2.91241 0.17682,-84.29506 20.51083,-165.56591 58.18466,-240.83759 0.50644,-1.02078 1.01288,-2.04155 1.53467,-3.09326 11.53727,-23.1632 25.23405,-45.00106 40.46533,-65.90674 0.42861,-0.5891 0.85723,-1.1782 1.29883,-1.78516 2.51822,-3.44336 5.09444,-6.83815 7.70117,-10.21484 0.41282,-0.53754 0.82564,-1.07508 1.25098,-1.62891 9.69732,-12.60437 20.02103,-24.63341 30.74902,-36.37109 0.43748,-0.48259 0.87495,-0.96519 1.32568,-1.4624 9.72427,-10.72475 19.63563,-21.47478 30.69776,-30.84229 2.48516,-2.13154 4.88096,-4.35215 7.28906,-6.57031 5.4025,-4.92013 10.97736,-9.56758 16.6875,-14.125 0.51369,-0.41331 1.02738,-0.82661 1.55664,-1.25244 31.10633,-25.003548 64.75998,-45.924849 100.44336,-63.74756 0.98178,-0.494839 1.96356,-0.989678 2.9751,-1.499512 C -160.08081,16.951011 -79.429884,-0.10109101 0,0 Z"
       fill="#ff6600"
       transform="translate(639.25,105.8125)"
       id="path2" />
    <path
       d="m 0,0 c 3.5706875,1.7853437 5.2998394,3.0507222 8.0373344,5.7912388 0.798695,0.7947129 1.59739,1.5894258 2.4202876,2.4082209 1.307391,1.3161293 1.307391,1.3161293 2.641194,2.6588473 0.930384,0.928675 1.860768,1.85735 2.819346,2.814167 2.583633,2.579157 5.16098,5.164516 7.737359,7.750916 2.778891,2.787518 5.563549,5.569264 8.347515,8.351711 4.823063,4.822013 9.642446,9.647678 14.459359,14.475834 6.964473,6.980719 13.934455,13.955916 20.905798,20.929774 11.310058,11.314436 22.615641,22.633333 33.918427,33.955033 10.98041,10.998758 21.96291,21.995418 32.94824,32.989258 0.677,0.67752 1.354,1.35505 2.05151,2.0531 3.39627,3.39888 6.79258,6.79771 10.1889,10.19653 C 174.65659,172.57668 202.83066,200.78598 231,229 c 3.31031,-1.44502 5.48836,-3.24103 8.03175,-5.79124 0.79746,-0.79471 1.59492,-1.58942 2.41655,-2.40822 0.87023,-0.87742 1.74046,-1.75484 2.63706,-2.65885 0.92897,-0.92867 1.85794,-1.85735 2.81507,-2.81416 2.57976,-2.57918 5.15324,-5.16454 7.72577,-7.75092 2.77481,-2.78754 5.55541,-5.5693 8.33536,-8.35171 4.81638,-4.82215 9.62919,-9.64784 14.4397,-14.47583 6.95641,-6.98149 13.91926,-13.95652 20.88391,-20.92978 11.30071,-11.31484 22.59767,-22.63341 33.89159,-33.95503 1.01412,-1.01661 1.01412,-1.01661 2.04873,-2.05376 4.79994,-4.81173 9.59974,-9.6236 14.39951,-14.4355 5.48623,-5.50009 10.97253,-11.00012 16.45898,-16.5 0.67587,-0.677523 1.35174,-1.355045 2.04808,-2.053099 11.25379,-11.281119 22.51147,-22.558339 33.77196,-33.832761 6.95065,-6.959623 13.8977,-13.922793 20.84023,-20.890512 4.75252,-4.769325 9.50853,-9.535152 14.26734,-14.298197 2.74912,-2.751819 5.49652,-5.505301 8.23961,-8.263129 2.96714,-2.983015 5.94185,-5.958356 8.91741,-8.9329624 0.87469,-0.881881 1.74938,-1.7637621 2.65058,-2.6723667 1.18837,-1.1842461 1.18837,-1.1842461 2.40074,-2.3924164 0.68665,-0.688488 1.37329,-1.3769759 2.08075,-2.0863272 C 462,0 462,0 464,0 c 0,93.39 0,186.78 0,283 73.92,0 147.84,0 224,0 -1.76281,4.40703 -3.80399,8.20148 -6.3125,12.1875 -0.43586,0.69416 -0.87173,1.38832 -1.3208,2.10352 -4.92371,7.73307 -10.28694,15.13562 -15.73633,22.5039 -1.57547,2.13083 -3.14046,4.26904 -4.70459,6.4082 -5.73679,7.79678 -11.7455,15.25758 -18.11328,22.54688 -2.58064,2.95829 -5.04746,5.99683 -7.5,9.0625 -3.49758,4.31348 -7.2398,8.22098 -11.21484,12.09375 -1.86697,1.86349 -3.58347,3.76822 -5.28516,5.78125 -7.23286,8.4158 -15.3012,16.38249 -23.76953,23.55078 -2.14825,1.85251 -4.2292,3.77024 -6.30762,5.70044 C 581.68686,410.55122 575.45926,415.86057 569,421 c -0.51224,0.41186 -1.02448,0.82371 -1.55225,1.24805 C 536.34069,447.25403 502.68525,468.17635 467,486 c -0.98178,0.49484 -1.96356,0.98968 -2.9751,1.49951 -71.19409,35.73698 -151.84502,52.78908 -231.2749,52.68799 -1.44165,-10e-4 -1.44165,-10e-4 -2.91241,-0.003 C 145.54253,540.00784 64.271679,519.67383 -11,482 c -1.020776,-0.50644 -2.041553,-1.01288 -3.093262,-1.53467 C -37.256464,468.92806 -59.094322,455.23128 -80,440 c -0.589102,-0.42861 -1.178203,-0.85723 -1.785156,-1.29883 C -85.228524,436.18295 -88.623309,433.60673 -92,431 c -0.537539,-0.41282 -1.075078,-0.82564 -1.628906,-1.25098 C -106.23328,420.0517 -118.26232,409.72799 -130,399 c -0.48259,-0.43748 -0.96519,-0.87495 -1.4624,-1.32568 -10.72475,-9.72427 -21.47478,-19.63563 -30.84229,-30.69776 -2.13154,-2.48516 -4.35215,-4.88096 -6.57031,-7.28906 -4.92013,-5.4025 -9.56758,-10.97736 -14.125,-16.6875 -0.41331,-0.51369 -0.82661,-1.02738 -1.25244,-1.55664 C -196.72138,325.93104 -208.17978,309.69973 -219,293 c -0.7193,-1.1036 -0.7193,-1.1036 -1.45312,-2.22949 -0.45891,-0.71575 -0.91782,-1.43151 -1.39063,-2.16895 -0.41443,-0.64372 -0.82887,-1.28745 -1.25586,-1.95068 C -224,285 -224,285 -224,283 c 73.92,0 147.84,0 224,0 C 0,189.61 0,96.22 0,0 Z"
       fill="#4c4c4c"
       transform="translate(408,634)"
       id="path4" />
  </g>
</svg>
