<?xml version="1.0" encoding="UTF-8" standalone="no"?>
<!-- Created with Inkscape (http://www.inkscape.org/) -->

<svg
   version="1.1"
   id="svg2"
   width="5008.1187"
   height="5008.6562"
   viewBox="0 0 5008.1187 5008.6562"
   sodipodi:docname="monero-symbol-emoji-inkscape.svg"
   inkscape:version="1.2.2 (b0a8486541, 2022-12-01)"
   xmlns:inkscape="http://www.inkscape.org/namespaces/inkscape"
   xmlns:sodipodi="http://sodipodi.sourceforge.net/DTD/sodipodi-0.dtd"
   xmlns="http://www.w3.org/2000/svg"
   xmlns:svg="http://www.w3.org/2000/svg">
  <defs
     id="defs6">
    <clipPath
       clipPathUnits="userSpaceOnUse"
       id="clipPath330">
      <g
         id="g334"
         transform="translate(-1969.3037,-1735.8262)">
        <path
           d="M 0,4500 H 4500 V 0 H 0 Z"
           id="path332" />
      </g>
    </clipPath>
    <clipPath
       clipPathUnits="userSpaceOnUse"
       id="clipPath336">
      <g
         id="g340"
         transform="translate(-2249.9844,-4128.2461)">
        <path
           d="M 0,4500 H 4500 V 0 H 0 Z"
           id="path338" />
      </g>
    </clipPath>
    <clipPath
       clipPathUnits="userSpaceOnUse"
       id="clipPath342">
      <g
         id="g346"
         transform="translate(-4128.0488,-2250.1904)">
        <path
           d="M 0,4500 H 4500 V 0 H 0 Z"
           id="path344" />
      </g>
    </clipPath>
  </defs>
  <sodipodi:namedview
     id="namedview4"
     pagecolor="#ffffff"
     bordercolor="#000000"
     borderopacity="0.25"
     inkscape:showpageshadow="2"
     inkscape:pageopacity="0.0"
     inkscape:pagecheckerboard="0"
     inkscape:deskcolor="#d1d1d1"
     showgrid="false"
     inkscape:zoom="0.2535"
     inkscape:cx="2090.7298"
     inkscape:cy="2502.9586"
     inkscape:window-width="3840"
     inkscape:window-height="2124"
     inkscape:window-x="0"
     inkscape:window-y="0"
     inkscape:window-maximized="1"
     inkscape:current-layer="g10">
    <sodipodi:guide
       position="-495.94639,5504.3279"
       orientation="0,6000"
       id="guide348"
       inkscape:locked="false" />
    <sodipodi:guide
       position="5504.0536,5504.3279"
       orientation="6000,0"
       id="guide350"
       inkscape:locked="false" />
    <sodipodi:guide
       position="5504.0536,-495.67215"
       orientation="0,-6000"
       id="guide352"
       inkscape:locked="false" />
    <sodipodi:guide
       position="-495.94639,-495.67215"
       orientation="-6000,0"
       id="guide354"
       inkscape:locked="false" />
  </sodipodi:namedview>
  <g
     id="g10"
     inkscape:groupmode="layer"
     inkscape:label="Page 1"
     transform="matrix(1.3333333,0,0,-1.3333333,-495.94639,5504.3284)">
    <g
       id="g20"
       transform="translate(4128.0488,2250.1904)"
       clip-path="url(#clipPath342)">
      <path
         d="m 0,0 c 0,-1037.173 -840.791,-1878.052 -1878.064,-1878.052 -1037.22,0 -1878.025,840.879 -1878.025,1878.052 0,1037.269 840.805,1878.056 1878.025,1878.056 C -840.791,1878.056 0,1037.269 0,0"
         style="fill:#ffffff;fill-opacity:1;fill-rule:nonzero;stroke:none"
         id="path22" />
    </g>
    <g
       id="g24"
       transform="translate(2249.9844,4128.2461)"
       clip-path="url(#clipPath336)">
      <path
         d="m 0,0 c -1036.895,0 -1879.119,-842.056 -1877.805,-1878.01 0.262,-207.264 33.308,-406.633 95.342,-593.116 h 561.884 V -891.229 L -0.023,-2111.813 1220.537,-891.229 v -1579.897 h 561.957 c 62.117,186.483 95.008,385.852 95.369,593.116 C 1879.672,-841.002 1036.976,-0.247 -0.023,-0.247 Z"
         style="fill:#f26821;fill-opacity:1;fill-rule:nonzero;stroke:none"
         id="path26" />
    </g>
    <g
       id="g28"
       transform="translate(1969.3037,1735.8262)"
       clip-path="url(#clipPath330)"
       inkscape:export-filename="xmr.svg"
       inkscape:export-xdpi="96"
       inkscape:export-ydpi="96">
      <path
         d="m 0,0 -532.671,532.703 v -994.141 h -203.637 -203.618 l -384.29,-0.07 c 329.634,-540.801 925.347,-902.564 1604.91,-902.564 679.54,0 1275.308,361.846 1604.969,902.647 l -384.445,-0.013 h -364.246 -43.028 V 532.703 L 561.246,0 280.639,-280.607 0.022,0 Z"
         style="fill:#4d4d4d;fill-opacity:1;fill-rule:nonzero;stroke:none"
         id="path30" />
    </g>
  </g>
</svg>
